<svg xmlns="http://www.w3.org/2000/svg" width="240" height="240" viewBox="0 0 240 240" role="img" aria-labelledby="title desc">
<title id="title">TerraSpace symbol for light backgrounds</title><desc id="desc">TerraSpace responsive brand logo</desc>
<g fill="none" stroke="#111318" stroke-linecap="round" stroke-linejoin="round"><path d="M142.51,46.36 A77.0,77.0 0 0 1 193.64,97.49" stroke-width="4.00"/><path d="M193.64,142.51 A77.0,77.0 0 0 1 142.51,193.64" stroke-width="4.00"/><path d="M97.49,193.64 A77.0,77.0 0 0 1 46.36,142.51" stroke-width="4.00"/><path d="M46.36,97.49 A77.0,77.0 0 0 1 97.49,46.36" stroke-width="4.00"/></g><path fill="#111318" d="M235.00,120.00 L209.00,126.00 L209.00,114.00 Z"/><path fill="#111318" d="M120.00,235.00 L114.00,209.00 L126.00,209.00 Z"/><path fill="#111318" d="M5.00,120.00 L31.00,114.00 L31.00,126.00 Z"/><path fill="#111318" d="M120.00,5.00 L126.00,31.00 L114.00,31.00 Z"/><line x1="120.00" y1="74.00" x2="120.00" y2="86.00" stroke="#111318" stroke-width="4.00" stroke-linecap="round"/><circle cx="120.00" cy="58.00" r="14.00" fill="none" stroke="#111318" stroke-width="4.00"/><line x1="74.96" y1="145.19" x2="90.33" y2="136.60" stroke="#111318" stroke-width="4.00" stroke-linecap="round"/><circle cx="61.00" cy="153.00" r="14.00" fill="none" stroke="#111318" stroke-width="4.00"/><line x1="165.04" y1="145.19" x2="149.67" y2="136.60" stroke="#111318" stroke-width="4.00" stroke-linecap="round"/><circle cx="179.00" cy="153.00" r="14.00" fill="none" stroke="#111318" stroke-width="4.00"/><polygon points="120.00,89.00 151.00,120.00 120.00,151.00 89.00,120.00" fill="#DFA750" stroke="#111318" stroke-width="4.6" stroke-linejoin="miter"/>
</svg>