<svg xmlns="http://www.w3.org/2000/svg" width="860" height="210" viewBox="0 0 860 210" role="img" aria-labelledby="title desc">
<title id="title">TerraSpace compact logo for dark backgrounds</title><desc id="desc">TerraSpace responsive brand logo</desc>
<g fill="none" stroke="#F7F7F5" stroke-linecap="round" stroke-linejoin="round"><path d="M120.70,50.39 A57.108333333333334,57.108333333333334 0 0 1 158.61,88.30" stroke-width="3.86"/><path d="M158.61,121.70 A57.108333333333334,57.108333333333334 0 0 1 120.70,159.61" stroke-width="3.86"/><path d="M87.30,159.61 A57.108333333333334,57.108333333333334 0 0 1 49.39,121.70" stroke-width="3.86"/><path d="M49.39,88.30 A57.108333333333334,57.108333333333334 0 0 1 87.30,50.39" stroke-width="3.86"/></g><path fill="#F7F7F5" d="M189.29,105.00 L170.01,109.45 L170.01,100.55 Z"/><path fill="#F7F7F5" d="M104.00,190.29 L99.55,171.01 L108.45,171.01 Z"/><path fill="#F7F7F5" d="M18.71,105.00 L37.99,100.55 L37.99,109.45 Z"/><path fill="#F7F7F5" d="M104.00,19.71 L108.45,38.99 L99.55,38.99 Z"/><polygon points="104.00,82.01 126.99,105.00 104.00,127.99 81.01,105.00" fill="#DFA750" stroke="#F7F7F5" stroke-width="4.079166666666667" stroke-linejoin="miter"/><path fill="#F7F7F5" d="M238.322265625 97.07177734375H252.87255859375V139.0H257.24072265625V97.07177734375H271.7294921875V93.1650390625H238.322265625Z"/><path fill="#F7F7F5" d="M297.11181640625 139.0H324.30517578125V135.09326171875H301.47998046875V117.8974609375H322.45947265625V113.99072265625H301.47998046875V97.07177734375H323.87451171875V93.1650390625H297.11181640625Z"/><path fill="#F7F7F5" d="M350.6103515625 139.0H354.978515625V120.57373046875H365.59130859375C366.17578125 120.57373046875 366.7294921875 120.54296875 367.283203125 120.51220703125L377.21923828125 139.0H382.26416015625L371.74365234375 119.65087890625C377.40380859375 117.7744140625 380.35693359375 113.0986328125 380.35693359375 106.97705078125C380.35693359375 98.88671875 375.25048828125 93.1650390625 365.560546875 93.1650390625H350.6103515625ZM354.978515625 116.63623046875V97.07177734375H365.3759765625C372.5126953125 97.07177734375 376.01953125 100.978515625 376.01953125 106.97705078125C376.01953125 112.88330078125 372.5126953125 116.63623046875 365.40673828125 116.63623046875Z"/><path fill="#F7F7F5" d="M406.56982421875 139.0H410.93798828125V120.57373046875H421.55078125C422.13525390625 120.57373046875 422.68896484375 120.54296875 423.24267578125 120.51220703125L433.1787109375 139.0H438.2236328125L427.703125 119.65087890625C433.36328125 117.7744140625 436.31640625 113.0986328125 436.31640625 106.97705078125C436.31640625 98.88671875 431.2099609375 93.1650390625 421.52001953125 93.1650390625H406.56982421875ZM410.93798828125 116.63623046875V97.07177734375H421.33544921875C428.47216796875 97.07177734375 431.97900390625 100.978515625 431.97900390625 106.97705078125C431.97900390625 112.88330078125 428.47216796875 116.63623046875 421.3662109375 116.63623046875Z"/><path fill="#F7F7F5" d="M 470.92,92.38 L 468.35,94.37 L 460.46,139.00 L 456.47,139.00 Z M 470.92,92.38 L 473.49,94.37 L 485.37,139.00 L 481.39,139.00 Z"/><path fill="#DFA750" d="M529.214946875 139.76904296875C539.18174375 139.76904296875 545.18027890625 134.201171875 545.18027890625 126.78759765625C545.18027890625 119.22021484375 538.59727109375 116.1748046875 532.69102109375 114.48291015625L527.89219296875 113.0986328125C523.46250546875 111.806640625 518.84824765625 109.62255859375 518.84824765625 104.88525390625C518.84824765625 99.994140625 523.21641171875 96.45654296875 529.49180234375 96.45654296875C535.4903375 96.45654296875 539.76621640625 99.625 540.289165625 104.70068359375H544.56504453125C544.226665625 97.7177734375 538.2588921875 92.51904296875 529.61484921875 92.51904296875C521.093853125 92.51904296875 514.57236875 97.62548828125 514.57236875 105.06982421875C514.57236875 110.8837890625 518.632915625 114.63671875 525.9542046875 116.7900390625L531.3682671875 118.35888671875C537.12070859375 120.05078125 540.9044 122.142578125 540.9044 126.72607421875C540.9044 132.1708984375 536.01328671875 135.80078125 529.214946875 135.80078125C523.1241265625 135.80078125 518.29453671875 132.87841796875 517.8331109375 127.40283203125H513.37266171875C513.86484921875 134.78564453125 519.83262265625 139.76904296875 529.214946875 139.76904296875Z"/><path fill="#DFA750" d="M571.2393609375 139.0H575.607525V121.5888671875H586.22031796875C595.87949765625 121.5888671875 600.98594296875 115.4365234375 600.98594296875 107.34619140625C600.98594296875 99.3173828125 595.87949765625 93.1650390625 586.18955625 93.1650390625H571.2393609375ZM575.607525 117.68212890625V97.07177734375H586.0049859375C593.1417046875 97.07177734375 596.648540625 101.4091796875 596.648540625 107.34619140625C596.648540625 113.31396484375 593.1417046875 117.68212890625 586.03574765625 117.68212890625Z"/><path fill="#DFA750" d="M 635.19,92.38 L 632.62,94.37 L 624.72,139.00 L 620.74,139.00 Z M 635.19,92.38 L 637.76,94.37 L 649.64,139.00 L 645.66,139.00 Z"/><path fill="#DFA750" d="M689.545128125 139.615234375C699.388878125 139.615234375 706.279503125 132.970703125 707.72530390625 124.603515625H703.35713984375C702.06514765625 130.84814453125 696.71260859375 135.52392578125 689.545128125 135.52392578125C680.931846875 135.52392578125 673.918175 128.7255859375 673.918175 116.11328125C673.918175 103.53173828125 680.931846875 96.64111328125 689.545128125 96.64111328125C696.71260859375 96.64111328125 702.06514765625 101.2861328125 703.35713984375 107.5615234375H707.72530390625C706.24874140625 99.10205078125 699.3273546875 92.5498046875 689.545128125 92.5498046875C677.94796015625 92.5498046875 669.6730578125 101.716796875 669.6730578125 116.11328125C669.6730578125 130.47900390625 677.94796015625 139.615234375 689.545128125 139.615234375Z"/><path fill="#DFA750" d="M733.56905390625 139.0H760.76241328125V135.09326171875H737.93721796875V117.8974609375H758.91671015625V113.99072265625H737.93721796875V97.07177734375H760.33174921875V93.1650390625H733.56905390625Z"/>
</svg>