<svg xmlns="http://www.w3.org/2000/svg" width="700" height="610" viewBox="0 0 700 610" role="img" aria-labelledby="title desc">
<title id="title">TerraSpace stacked logo for dark backgrounds</title><desc id="desc">TerraSpace responsive brand logo</desc>
<g fill="none" stroke="#F7F7F5" stroke-linecap="round" stroke-linejoin="round"><path d="M372.51,76.36 A77.0,77.0 0 0 1 423.64,127.49" stroke-width="4.00"/><path d="M423.64,172.51 A77.0,77.0 0 0 1 372.51,223.64" stroke-width="4.00"/><path d="M327.49,223.64 A77.0,77.0 0 0 1 276.36,172.51" stroke-width="4.00"/><path d="M276.36,127.49 A77.0,77.0 0 0 1 327.49,76.36" stroke-width="4.00"/></g><path fill="#F7F7F5" d="M465.00,150.00 L439.00,156.00 L439.00,144.00 Z"/><path fill="#F7F7F5" d="M350.00,265.00 L344.00,239.00 L356.00,239.00 Z"/><path fill="#F7F7F5" d="M235.00,150.00 L261.00,144.00 L261.00,156.00 Z"/><path fill="#F7F7F5" d="M350.00,35.00 L356.00,61.00 L344.00,61.00 Z"/><line x1="350.00" y1="104.00" x2="350.00" y2="116.00" stroke="#F7F7F5" stroke-width="4.00" stroke-linecap="round"/><circle cx="350.00" cy="88.00" r="14.00" fill="none" stroke="#F7F7F5" stroke-width="4.00"/><line x1="304.96" y1="175.19" x2="320.33" y2="166.60" stroke="#F7F7F5" stroke-width="4.00" stroke-linecap="round"/><circle cx="291.00" cy="183.00" r="14.00" fill="none" stroke="#F7F7F5" stroke-width="4.00"/><line x1="395.04" y1="175.19" x2="379.67" y2="166.60" stroke="#F7F7F5" stroke-width="4.00" stroke-linecap="round"/><circle cx="409.00" cy="183.00" r="14.00" fill="none" stroke="#F7F7F5" stroke-width="4.00"/><polygon points="350.00,119.00 381.00,150.00 350.00,181.00 319.00,150.00" fill="#DFA750" stroke="#F7F7F5" stroke-width="4.6" stroke-linejoin="miter"/><path fill="#F7F7F5" d="M58.029198828125004 460.40966796875H73.503319921875V505.0H78.148827734375V460.40966796875H93.557519140625V456.2548828125H58.029198828125004Z"/><path fill="#F7F7F5" d="M123.535546484375 505.0H152.455468359375V500.84521484375H128.181054296875V482.5576171875H150.492577734375V478.40283203125H128.181054296875V460.40966796875H151.997460546875V456.2548828125H123.535546484375Z"/><path fill="#F7F7F5" d="M183.414941015625 505.0H188.060448828125V485.40380859375H199.347069921875C199.968651953125 485.40380859375 200.557519140625 485.37109375 201.146386328125 485.33837890625L211.713280859375 505.0H217.078515234375L205.890038671875 484.42236328125C211.909569921875 482.4267578125 215.050194921875 477.4541015625 215.050194921875 470.94384765625C215.050194921875 462.33984375 209.619530859375 456.2548828125 199.314355078125 456.2548828125H183.414941015625ZM188.060448828125 481.21630859375V460.40966796875H199.118066015625C206.707909765625 460.40966796875 210.437401953125 464.564453125 210.437401953125 470.94384765625C210.437401953125 477.22509765625 206.707909765625 481.21630859375 199.150780859375 481.21630859375Z"/><path fill="#F7F7F5" d="M245.911523046875 505.0H250.557030859375V485.40380859375H261.843651953125C262.465233984375 485.40380859375 263.054101171875 485.37109375 263.642968359375 485.33837890625L274.209862890625 505.0H279.575097265625L268.386620703125 484.42236328125C274.406151953125 482.4267578125 277.546776953125 477.4541015625 277.546776953125 470.94384765625C277.546776953125 462.33984375 272.116112890625 456.2548828125 261.810937109375 456.2548828125H245.911523046875ZM250.557030859375 481.21630859375V460.40966796875H261.614648046875C269.204491796875 460.40966796875 272.933983984375 464.564453125 272.933983984375 470.94384765625C272.933983984375 477.22509765625 269.204491796875 481.21630859375 261.647362890625 481.21630859375Z"/><path fill="#F7F7F5" d="M 317.33,455.42 L 314.60,457.54 L 306.20,505.00 L 301.96,505.00 Z M 317.33,455.42 L 320.06,457.54 L 332.70,505.00 L 328.46,505.00 Z"/><path fill="#DFA750" d="M382.803955078125 505.81787109375C393.403564453125 505.81787109375 399.782958984375 499.896484375 399.782958984375 492.01220703125C399.782958984375 483.96435546875 392.781982421875 480.7255859375 386.500732421875 478.92626953125L381.397216796875 477.4541015625C376.686279296875 476.080078125 371.779052734375 473.75732421875 371.779052734375 468.71923828125C371.779052734375 463.517578125 376.424560546875 459.75537109375 383.098388671875 459.75537109375C389.477783203125 459.75537109375 394.025146484375 463.125 394.581298828125 468.52294921875H399.128662109375C398.768798828125 461.0966796875 392.422119140625 455.56787109375 383.229248046875 455.56787109375C374.167236328125 455.56787109375 367.231689453125 460.99853515625 367.231689453125 468.91552734375C367.231689453125 475.0986328125 371.550048828125 479.08984375 379.336181640625 481.3798828125L385.093994140625 483.04833984375C391.211669921875 484.84765625 395.235595703125 487.072265625 395.235595703125 491.94677734375C395.235595703125 497.7373046875 390.033935546875 501.59765625 382.803955078125 501.59765625C376.326416015625 501.59765625 371.190185546875 498.48974609375 370.699462890625 492.66650390625H365.955810546875C366.479248046875 500.51806640625 372.825927734375 505.81787109375 382.803955078125 505.81787109375Z"/><path fill="#DFA750" d="M430.480712890625 505.0H435.126220703125V486.4833984375H446.412841796875C456.685302734375 486.4833984375 462.115966796875 479.9404296875 462.115966796875 471.33642578125C462.115966796875 462.7978515625 456.685302734375 456.2548828125 446.380126953125 456.2548828125H430.480712890625ZM435.126220703125 482.32861328125V460.40966796875H446.183837890625C453.773681640625 460.40966796875 457.503173828125 465.0224609375 457.503173828125 471.33642578125C457.503173828125 477.68310546875 453.773681640625 482.32861328125 446.216552734375 482.32861328125Z"/><path fill="#DFA750" d="M 501.48,455.42 L 498.75,457.54 L 490.35,505.00 L 486.11,505.00 Z M 501.48,455.42 L 504.21,457.54 L 516.85,505.00 L 512.61,505.00 Z"/><path fill="#DFA750" d="M562.266211328125 505.654296875C572.734961328125 505.654296875 580.063086328125 498.587890625 581.600683984375 489.689453125H576.955176171875C575.581152734375 496.33056640625 569.888769921875 501.30322265625 562.266211328125 501.30322265625C553.106055078125 501.30322265625 545.647070703125 494.0732421875 545.647070703125 480.66015625C545.647070703125 467.27978515625 553.106055078125 459.95166015625 562.266211328125 459.95166015625C569.888769921875 459.95166015625 575.581152734375 464.8916015625 576.955176171875 471.5654296875H581.600683984375C580.030371484375 462.56884765625 572.669531640625 455.6005859375 562.266211328125 455.6005859375C549.932715234375 455.6005859375 541.132422265625 465.349609375 541.132422265625 480.66015625C541.132422265625 495.93798828125 549.932715234375 505.654296875 562.266211328125 505.654296875Z"/><path fill="#DFA750" d="M612.069433984375 505.0H640.989355859375V500.84521484375H616.714941796875V482.5576171875H639.026465234375V478.40283203125H616.714941796875V460.40966796875H640.531348046875V456.2548828125H612.069433984375Z"/>
</svg>