<svg xmlns="http://www.w3.org/2000/svg" width="1320" height="300" viewBox="0 0 1320 300" role="img" aria-labelledby="title desc">
<title id="title">TerraSpace horizontal logo for dark backgrounds</title><desc id="desc">TerraSpace responsive brand logo</desc>
<g fill="none" stroke="#F7F7F5" stroke-linecap="round" stroke-linejoin="round"><path d="M164.51,76.36 A77.0,77.0 0 0 1 215.64,127.49" stroke-width="4.00"/><path d="M215.64,172.51 A77.0,77.0 0 0 1 164.51,223.64" stroke-width="4.00"/><path d="M119.49,223.64 A77.0,77.0 0 0 1 68.36,172.51" stroke-width="4.00"/><path d="M68.36,127.49 A77.0,77.0 0 0 1 119.49,76.36" stroke-width="4.00"/></g><path fill="#F7F7F5" d="M257.00,150.00 L231.00,156.00 L231.00,144.00 Z"/><path fill="#F7F7F5" d="M142.00,265.00 L136.00,239.00 L148.00,239.00 Z"/><path fill="#F7F7F5" d="M27.00,150.00 L53.00,144.00 L53.00,156.00 Z"/><path fill="#F7F7F5" d="M142.00,35.00 L148.00,61.00 L136.00,61.00 Z"/><line x1="142.00" y1="104.00" x2="142.00" y2="116.00" stroke="#F7F7F5" stroke-width="4.00" stroke-linecap="round"/><circle cx="142.00" cy="88.00" r="14.00" fill="none" stroke="#F7F7F5" stroke-width="4.00"/><line x1="96.96" y1="175.19" x2="112.33" y2="166.60" stroke="#F7F7F5" stroke-width="4.00" stroke-linecap="round"/><circle cx="83.00" cy="183.00" r="14.00" fill="none" stroke="#F7F7F5" stroke-width="4.00"/><line x1="187.04" y1="175.19" x2="171.67" y2="166.60" stroke="#F7F7F5" stroke-width="4.00" stroke-linecap="round"/><circle cx="201.00" cy="183.00" r="14.00" fill="none" stroke="#F7F7F5" stroke-width="4.00"/><polygon points="142.00,119.00 173.00,150.00 142.00,181.00 111.00,150.00" fill="#DFA750" stroke="#F7F7F5" stroke-width="4.6" stroke-linejoin="miter"/><path fill="#F7F7F5" d="M339.4296875 134.095703125H358.830078125V190.0H364.654296875V134.095703125H383.97265625V128.88671875H339.4296875Z"/><path fill="#F7F7F5" d="M427.482421875 190.0H463.740234375V184.791015625H433.306640625V161.86328125H461.279296875V156.654296875H433.306640625V134.095703125H463.166015625V128.88671875H427.482421875Z"/><path fill="#F7F7F5" d="M508.48046875 190.0H514.3046875V165.431640625H528.455078125C529.234375 165.431640625 529.97265625 165.390625 530.7109375 165.349609375L543.958984375 190.0H550.685546875L536.658203125 164.201171875C544.205078125 161.69921875 548.142578125 155.46484375 548.142578125 147.302734375C548.142578125 136.515625 541.333984375 128.88671875 528.4140625 128.88671875H508.48046875ZM514.3046875 160.181640625V134.095703125H528.16796875C537.68359375 134.095703125 542.359375 139.3046875 542.359375 147.302734375C542.359375 155.177734375 537.68359375 160.181640625 528.208984375 160.181640625Z"/><path fill="#F7F7F5" d="M592.759765625 190.0H598.583984375V165.431640625H612.734375C613.513671875 165.431640625 614.251953125 165.390625 614.990234375 165.349609375L628.23828125 190.0H634.96484375L620.9375 164.201171875C628.484375 161.69921875 632.421875 155.46484375 632.421875 147.302734375C632.421875 136.515625 625.61328125 128.88671875 612.693359375 128.88671875H592.759765625ZM598.583984375 160.181640625V134.095703125H612.447265625C621.962890625 134.095703125 626.638671875 139.3046875 626.638671875 147.302734375C626.638671875 155.177734375 621.962890625 160.181640625 612.48828125 160.181640625Z"/><path fill="#F7F7F5" d="M 688.23,127.84 L 684.80,130.50 L 674.27,190.00 L 668.96,190.00 Z M 688.23,127.84 L 691.65,130.50 L 707.50,190.00 L 702.18,190.00 Z"/><path fill="#DFA750" d="M777.9532624999999 191.025390625C791.2423249999999 191.025390625 799.2403718749999 183.6015625 799.2403718749999 173.716796875C799.2403718749999 163.626953125 790.4630281249999 159.56640625 782.5880281249999 157.310546875L776.1895906249999 155.46484375C770.2833406249999 153.7421875 764.1309968749999 150.830078125 764.1309968749999 144.513671875C764.1309968749999 137.9921875 769.9552156249999 133.275390625 778.3224031249999 133.275390625C786.3204499999999 133.275390625 792.0216218749999 137.5 792.7188874999999 144.267578125H798.4200593749999C797.9688874999999 134.95703125 790.0118562499999 128.025390625 778.4864656249999 128.025390625C767.1251374999999 128.025390625 758.4298249999999 134.833984375 758.4298249999999 144.759765625C758.4298249999999 152.51171875 763.8438874999999 157.515625 773.6056062499999 160.38671875L780.8243562499999 162.478515625C788.4942781249999 164.734375 793.5391999999999 167.5234375 793.5391999999999 173.634765625C793.5391999999999 180.89453125 787.0177156249999 185.734375 777.9532624999999 185.734375C769.8321687499999 185.734375 763.3927156249999 181.837890625 762.7774812499999 174.537109375H756.8302156249999C757.4864656249999 184.380859375 765.4434968749999 191.025390625 777.9532624999999 191.025390625Z"/><path fill="#DFA750" d="M843.6524812499999 190.0H849.4766999999999V166.78515625H863.6270906249999C876.5059968749999 166.78515625 883.3145906249999 158.58203125 883.3145906249999 147.794921875C883.3145906249999 137.08984375 876.5059968749999 128.88671875 863.5860749999999 128.88671875H843.6524812499999ZM849.4766999999999 161.576171875V134.095703125H863.3399812499999C872.8556062499999 134.095703125 877.5313874999999 139.87890625 877.5313874999999 147.794921875C877.5313874999999 155.751953125 872.8556062499999 161.576171875 863.3809968749999 161.576171875Z"/><path fill="#DFA750" d="M 938.59,127.84 L 935.16,130.50 L 924.63,190.00 L 919.32,190.00 Z M 938.59,127.84 L 942.01,130.50 L 957.86,190.00 L 952.54,190.00 Z"/><path fill="#DFA750" d="M1020.7268374999999 190.8203125C1033.8518374999999 190.8203125 1043.0393374999999 181.9609375 1044.9670718749999 170.8046875H1039.1428531249999C1037.4201968749999 179.130859375 1030.2834781249999 185.365234375 1020.7268374999999 185.365234375C1009.2424624999999 185.365234375 999.8908999999999 176.30078125 999.8908999999999 159.484375C999.8908999999999 142.708984375 1009.2424624999999 133.521484375 1020.7268374999999 133.521484375C1030.2834781249999 133.521484375 1037.4201968749999 139.71484375 1039.1428531249999 148.08203125H1044.9670718749999C1042.9983218749999 136.802734375 1033.7698062499999 128.06640625 1020.7268374999999 128.06640625C1005.2639468749999 128.06640625 994.2307437499999 140.2890625 994.2307437499999 159.484375C994.2307437499999 178.638671875 1005.2639468749999 190.8203125 1020.7268374999999 190.8203125Z"/><path fill="#DFA750" d="M1089.0920718749999 190.0H1125.3498843749999V184.791015625H1094.9162906249999V161.86328125H1122.8889468749999V156.654296875H1094.9162906249999V134.095703125H1124.7756656249999V128.88671875H1089.0920718749999Z"/>
</svg>