<svg xmlns="http://www.w3.org/2000/svg" width="240" height="240" viewBox="0 0 240 240" role="img" aria-labelledby="title desc">
<title id="title">TerraSpace micro mark for dark backgrounds</title><desc id="desc">TerraSpace responsive brand logo</desc>
<g fill="none" stroke="#F7F7F5" stroke-linecap="round" stroke-linejoin="round"></g><path d="M142.51,46.36 A77.0,77.0 0 0 1 193.64,97.49" fill="none" stroke="#F7F7F5" stroke-width="5.20" stroke-linecap="round"/><path d="M193.64,142.51 A77.0,77.0 0 0 1 142.51,193.64" fill="none" stroke="#F7F7F5" stroke-width="5.20" stroke-linecap="round"/><path d="M97.49,193.64 A77.0,77.0 0 0 1 46.36,142.51" fill="none" stroke="#F7F7F5" stroke-width="5.20" stroke-linecap="round"/><path d="M46.36,97.49 A77.0,77.0 0 0 1 97.49,46.36" fill="none" stroke="#F7F7F5" stroke-width="5.20" stroke-linecap="round"/><path fill="#F7F7F5" d="M235.00,120.00 L209.00,126.00 L209.00,114.00 Z"/><path fill="#F7F7F5" d="M120.00,235.00 L114.00,209.00 L126.00,209.00 Z"/><path fill="#F7F7F5" d="M5.00,120.00 L31.00,114.00 L31.00,126.00 Z"/><path fill="#F7F7F5" d="M120.00,5.00 L126.00,31.00 L114.00,31.00 Z"/><polygon points="120.00,89.00 151.00,120.00 120.00,151.00 89.00,120.00" fill="#DFA750" stroke="#F7F7F5" stroke-width="5.5" stroke-linejoin="miter"/>
</svg>